<svg width="1976" height="627" viewBox="0 0 1976 627" fill="none" xmlns="http://www.w3.org/2000/svg">
<circle cx="1758.5" cy="355.5" r="177.5" stroke="black" stroke-width="80"/>
<path d="M174 160.502L359 161L174 2V160.502Z" fill="black" stroke="black"/>
<path d="M1 2H174L173 293.5L1 160V2Z" fill="black" stroke="black"/>
<path d="M174 492.502L359 493L174 334V492.502Z" fill="black" stroke="black"/>
<path d="M1 334H174L173 625.5L1 492V334Z" fill="black" stroke="black"/>
<mask id="path-6-outside-1_1_40" maskUnits="userSpaceOnUse" x="562.48" y="11.36" width="419" height="570" fill="black">
<rect fill="white" x="562.48" y="11.36" width="419" height="570"/>
<path fill-rule="evenodd" clip-rule="evenodd" d="M693.6 240.52H781V183.52H693.6V153.88C693.6 126.52 699.68 107.013 711.84 95.36C724.507 83.2 746.04 77.12 776.44 77.12V19.36C723.24 19.36 684.48 30.2533 660.16 52.04C636.347 73.32 624.44 107.267 624.44 153.88V183.52H570.48V240.52H624.44V573H693.6V240.52ZM961.197 573H892.037V183.52H961.197V573ZM894.317 102.2C903.437 111.32 914.584 115.88 927.757 115.88C940.424 115.88 951.064 111.32 959.677 102.2C968.797 93.08 973.357 81.9333 973.357 68.76C973.357 55.5867 968.797 44.44 959.677 35.32C951.064 26.2 940.424 21.64 927.757 21.64C914.584 21.64 903.437 26.2 894.317 35.32C885.197 44.44 880.637 55.5867 880.637 68.76C880.637 81.9333 885.197 93.08 894.317 102.2Z"/>
</mask>
<path fill-rule="evenodd" clip-rule="evenodd" d="M693.6 240.52H781V183.52H693.6V153.88C693.6 126.52 699.68 107.013 711.84 95.36C724.507 83.2 746.04 77.12 776.44 77.12V19.36C723.24 19.36 684.48 30.2533 660.16 52.04C636.347 73.32 624.44 107.267 624.44 153.88V183.52H570.48V240.52H624.44V573H693.6V240.52ZM961.197 573H892.037V183.52H961.197V573ZM894.317 102.2C903.437 111.32 914.584 115.88 927.757 115.88C940.424 115.88 951.064 111.32 959.677 102.2C968.797 93.08 973.357 81.9333 973.357 68.76C973.357 55.5867 968.797 44.44 959.677 35.32C951.064 26.2 940.424 21.64 927.757 21.64C914.584 21.64 903.437 26.2 894.317 35.32C885.197 44.44 880.637 55.5867 880.637 68.76C880.637 81.9333 885.197 93.08 894.317 102.2Z" fill="black"/>
<path d="M781 240.52V248.52H789V240.52H781ZM693.6 240.52V232.52H685.6V240.52H693.6ZM781 183.52H789V175.52H781V183.52ZM693.6 183.52H685.6V191.52H693.6V183.52ZM711.84 95.36L717.375 101.136L717.38 101.131L711.84 95.36ZM776.44 77.12V85.12H784.44V77.12H776.44ZM776.44 19.36H784.44V11.36H776.44V19.36ZM660.16 52.04L665.491 58.0053L665.498 57.9987L660.16 52.04ZM624.44 183.52V191.52H632.44V183.52H624.44ZM570.48 183.52V175.52H562.48V183.52H570.48ZM570.48 240.52H562.48V248.52H570.48V240.52ZM624.44 240.52H632.44V232.52H624.44V240.52ZM624.44 573H616.44V581H624.44V573ZM693.6 573V581H701.6V573H693.6ZM892.037 573H884.037V581H892.037V573ZM961.197 573V581H969.197V573H961.197ZM892.037 183.52V175.52H884.037V183.52H892.037ZM961.197 183.52H969.197V175.52H961.197V183.52ZM894.317 102.2L899.974 96.5432L899.974 96.5431L894.317 102.2ZM959.677 102.2L954.02 96.5432L953.94 96.6239L953.861 96.707L959.677 102.2ZM959.677 35.32L953.861 40.813L953.94 40.8961L954.02 40.9769L959.677 35.32ZM894.317 35.32L899.974 40.9769L899.974 40.9769L894.317 35.32ZM781 232.52H693.6V248.52H781V232.52ZM773 183.52V240.52H789V183.52H773ZM693.6 191.52H781V175.52H693.6V191.52ZM685.6 153.88V183.52H701.6V153.88H685.6ZM706.305 89.5841C691.825 103.461 685.6 125.65 685.6 153.88H701.6C701.6 127.39 707.535 110.566 717.375 101.136L706.305 89.5841ZM776.44 69.12C745.371 69.12 721.226 75.2597 706.3 89.5889L717.38 101.131C727.787 91.1403 746.709 85.12 776.44 85.12V69.12ZM768.44 19.36V77.12H784.44V19.36H768.44ZM665.498 57.9987C687.668 38.1381 724.045 27.36 776.44 27.36V11.36C722.435 11.36 681.292 22.3686 654.822 46.0813L665.498 57.9987ZM632.44 153.88C632.44 108.48 644.034 77.1792 665.491 58.0053L654.829 46.0748C628.659 69.4608 616.44 106.053 616.44 153.88H632.44ZM632.44 183.52V153.88H616.44V183.52H632.44ZM570.48 191.52H624.44V175.52H570.48V191.52ZM578.48 240.52V183.52H562.48V240.52H578.48ZM624.44 232.52H570.48V248.52H624.44V232.52ZM632.44 573V240.52H616.44V573H632.44ZM624.44 581H693.6V565H624.44V581ZM685.6 240.52V573H701.6V240.52H685.6ZM892.037 581H961.197V565H892.037V581ZM900.037 573V183.52H884.037V573H900.037ZM892.037 191.52H961.197V175.52H892.037V191.52ZM953.197 183.52V573H969.197V183.52H953.197ZM927.757 107.88C916.655 107.88 907.558 104.127 899.974 96.5432L888.66 107.857C899.316 118.513 912.513 123.88 927.757 123.88V107.88ZM953.861 96.707C946.776 104.209 938.247 107.88 927.757 107.88V123.88C942.601 123.88 955.352 118.431 965.493 107.693L953.861 96.707ZM965.357 68.76C965.357 79.8624 961.604 88.959 954.02 96.5432L965.334 107.857C975.99 97.201 981.357 84.0042 981.357 68.76H965.357ZM954.02 40.9769C961.604 48.561 965.357 57.6576 965.357 68.76H981.357C981.357 53.5158 975.99 40.319 965.334 29.6632L954.02 40.9769ZM927.757 29.64C938.247 29.64 946.776 33.3108 953.861 40.813L965.493 29.827C955.352 19.0892 942.601 13.64 927.757 13.64V29.64ZM899.974 40.9769C907.558 33.3927 916.655 29.64 927.757 29.64V13.64C912.513 13.64 899.316 19.0073 888.66 29.6632L899.974 40.9769ZM888.637 68.76C888.637 57.6576 892.39 48.561 899.974 40.9769L888.66 29.6631C878.004 40.319 872.637 53.5158 872.637 68.76H888.637ZM899.974 96.5431C892.39 88.959 888.637 79.8624 888.637 68.76H872.637C872.637 84.0042 878.004 97.201 888.66 107.857L899.974 96.5431Z" fill="black" mask="url(#path-6-outside-1_1_40)"/>
<path d="M781 248V176H892V248H781Z" fill="black" stroke="black" stroke-miterlimit="2.9987" stroke-linejoin="round"/>
<rect x="1050" y="28" width="84" height="545" fill="black"/>
<rect x="1223" y="28" width="84" height="545" fill="black"/>
<rect x="1407" y="28" width="84" height="545" fill="black"/>
</svg>
